<svg width="24" height="24" viewBox="0 0 24 24" fill="none" xmlns="http://www.w3.org/2000/svg">
<path d="M8 5H7.60434C6.66695 5 5.85532 5.65106 5.65197 6.56614L4.04763 13.7857C4.01597 13.9281 4 14.0736 4 14.2195V18C4 19.1046 4.89543 20 6 20H18C19.1046 20 20 19.1046 20 18V14.2195C20 14.0736 19.984 13.9281 19.9524 13.7857L18.348 6.56614C18.1447 5.65106 17.3331 5 16.3957 5H16" stroke="#212529" stroke-width="1.5" stroke-linecap="round"/>
<path d="M9 9L12 12M15 9L12 12M12 12V3" stroke="#212529" stroke-width="1.5" stroke-linecap="round" stroke-linejoin="round"/>
<path d="M4 15C4 14.4477 4.44772 14 5 14H6.96922C7.57502 14 8.10307 14.4123 8.25 15V15C8.39693 15.5877 8.92498 16 9.53078 16H14.4692C15.075 16 15.6031 15.5877 15.75 15V15C15.8969 14.4123 16.425 14 17.0308 14H19C19.5523 14 20 14.4477 20 15V18C20 19.1046 19.1046 20 18 20H6C4.89543 20 4 19.1046 4 18V15Z" stroke="#212529" stroke-width="1.5"/>
</svg>
